{"title":"Rio 2011 DVDRiP XViD AC3 - IMAGiNE","uid":6491282,"size":1416216109,"categoryP":"video","categoryS":"movies","magnet":"?xt=urn:btih:53d3c9ae8eeaae4e0f51ec12e4ece837939fc9fb&amp;dn=Rio+2011+DVDRiP+XViD+AC3+-+IMAGiNE&amp;tr=udp%3A%2F%2Ftracker.openbittorrent.com%3A80&amp;tr=udp%3A%2F%2Fopen.demonii.com%3A1337&amp;tr=udp%3A%2F%2Ftracker.coppersurfer.tk%3A6969&amp;tr=udp%3A%2F%2Fexodus.desync.com%3A6969","seeders":0,"leechers":1,"uploader":"HeroMaster","files":-1,"time":1308899091,"description":"Rio 2011 DVDRiP XViD AC3 - IMAGiNE\n\n\nRipper ...........:IMAGiNE \nIMDB Rating.......:7.5/10\nVideo Codec.......:XVID \nRelease Date......:23/06/11\nAudio Codec.......:MP3 \nTheatre Date......:15/04/11\nAudio Bitrate.....:128 \nRuntime...........:1h 35mn\nSubtitles.........:NIL \nLanguage..........:ENGLISH\nResolution........:720 x 288 \nIMDb URL..........:http://www.imdb.com/title/tt1436562/ \n\n\nDETAILS:\n\nVideo\nID: 0\nFormat: MPEG-4 Visual\nFormat profile: Advanced Simple@L5\nFormat settings, BVOP: 2\nFormat settings, QPel: No\nFormat settings, GMC: No warppoints\nFormat settings, Matrix: Default (MPEG)\nMuxing mode: Packed bitstream\nCodec ID: XVID\nCodec ID/Hint: XviD\nDuration: 1h 35mn\nBit rate: 1 493 Kbps\nWidth: 720 pixels\nHeight: 288 pixels\nDisplay aspect ratio: 2.500\nFrame rate: 23.976 fps\nColor space: YUV\nChroma subsampling: 4:2:0\nBit depth: 8 bits\nScan type: Progressive\nCompression mode: Lossy\nBits/(Pixel*Frame): 0.300\nStream size: 1.00 GiB (77%)\nWriting library: XviD 61\n\nAudio\nID: 1\nFormat: AC-3\nFormat/Info: Audio Coding 3\nMode extension: CM (complete main)\nCodec ID: 2000\nDuration: 1h 35mn\nBit rate mode: Constant\nBit rate: 448 Kbps\nChannel(s): 2 channels\nChannel positions: Front: L R\nSampling rate: 48.0 KHz\nBit depth: 16 bits\nCompression mode: Lossy\nStream size: 307 MiB (23%)\nAlignment: Aligned on interleaves\nInterleave, duration: 42 ms (1.00 video frame) \n\n\nSOURCES:\n\nVIDEO: Rio.DVD9-ZMG\nAUDIO: Rio.DVD9-ZMG ....Thanks m8ty NOTES:\n\n\nIMAGiNE bringing you another release.......... Rio\n\nOk here we are with a nice dvdrip of Rio\nNot much was needed for this one\nas the source files were very nice\nSo we made a script to crop resize and sharpen\nthen ran a denoiser over it\nAudio was then remuxed to our encode\nEnjoy Another Fine Release By IMAGiNE...!!! \n\n\nSCREENS:\n\n &lt;a href=&quot;\nhttp://leetleech.org/images/12956114867533996080.jpg&quot; rel=&quot;nofollow&quot; target=&quot;_NEW&quot;&gt;\nhttp://leetleech.org/images/12956114867533996080.jpg&lt;/a&gt;\n &lt;a href=&quot;\nhttp://leetleech.org/images/08318087235813273985.jpg&quot; rel=&quot;nofollow&quot; target=&quot;_NEW&quot;&gt;\nhttp://leetleech.org/images/08318087235813273985.jpg&lt;/a&gt;\n &lt;a href=&quot;\nhttp://leetleech.org/images/37539734971200284121.jpg&quot; rel=&quot;nofollow&quot; target=&quot;_NEW&quot;&gt;\nhttp://leetleech.org/images/37539734971200284121.jpg&lt;/a&gt;\n\n\nENJOY!","torrent":{"xt":"urn:btih:53d3c9ae8eeaae4e0f51ec12e4ece837939fc9fb","amp;dn":"Rio+2011+DVDRiP+XViD+AC3+-+IMAGiNE","amp;tr":["udp%3A%2F%2Ftracker.openbittorrent.com%3A80","udp%3A%2F%2Fopen.demonii.com%3A1337","udp%3A%2F%2Ftracker.coppersurfer.tk%3A6969","udp%3A%2F%2Fexodus.desync.com%3A6969"],"infoHash":"53d3c9ae8eeaae4e0f51ec12e4ece837939fc9fb","infoHashBuffer":{"type":"Buffer","data":[83,211,201,174,142,234,174,78,15,81,236,18,228,236,232,55,147,159,201,251]},"announce":[],"urlList":[]}}